<svg xmlns="http://www.w3.org/2000/svg" xmlns:xlink="http://www.w3.org/1999/xlink" contentStyleType="text/css" data-diagram-type="ACTIVITY" height="1487px" preserveAspectRatio="none" style="width:889px;height:1487px;background:#FFFFFF;" version="1.1" viewBox="0 0 889 1487" width="889px" zoomAndPan="magnify"><?plantuml 1.2026.3beta4?><defs/><g><ellipse cx="533.9358" cy="20" fill="#FFFFFF" rx="10" ry="10" style="stroke:#000000;stroke-width:1;"/><rect fill="#E0FFFF" height="33.9688" rx="12.5" ry="12.5" style="stroke:#00008B;stroke-width:1;" width="262.6895" x="402.5911" y="50"/><text fill="#000000" font-family="Verdana" font-size="12" lengthAdjust="spacing" textLength="242.6895" x="412.5911" y="71.1387">Ng&#432;&#7901;i d&#249;ng ch&#7885;n t&#237;nh n&#259;ng "Ch&#7849;n &#273;o&#225;n"</text><rect fill="#E0FFFF" height="33.9688" rx="12.5" ry="12.5" style="stroke:#00008B;stroke-width:1;" width="199.1152" x="434.3782" y="103.9688"/><text fill="#000000" font-family="Verdana" font-size="12" lengthAdjust="spacing" textLength="179.1152" x="444.3782" y="125.1074">Hi&#7875;n th&#7883; giao di&#7879;n Upload &#7842;nh</text><rect fill="#E0FFFF" height="33.9688" rx="12.5" ry="12.5" style="stroke:#00008B;stroke-width:1;" width="247.9414" x="409.9651" y="201.9375"/><text fill="#000000" font-family="Verdana" font-size="12" lengthAdjust="spacing" textLength="227.9414" x="419.9651" y="223.0762">Ng&#432;&#7901;i d&#249;ng ch&#7885;n file v&#224; b&#7845;m "T&#7843;i l&#234;n"</text><rect fill="#E0FFFF" height="33.9688" rx="12.5" ry="12.5" style="stroke:#00008B;stroke-width:1;" width="345.3711" x="361.2502" y="263.4063"/><text fill="#000000" font-family="Verdana" font-size="12" lengthAdjust="spacing" textLength="325.3711" x="371.2502" y="284.5449">H&#7879; th&#7889;ng ki&#7875;m tra &#273;&#7883;nh d&#7841;ng v&#224; dung l&#432;&#7907;ng (Validate)</text><polygon fill="#E0FFFF" points="533.9358,157.9375,545.9358,169.9375,533.9358,181.9375,521.9358,169.9375,533.9358,157.9375" style="stroke:#00008B;stroke-width:1;"/><polygon fill="#E0FFFF" points="501.532,317.375,566.3396,317.375,578.3396,329.375,566.3396,341.375,501.532,341.375,489.532,329.375,501.532,317.375" style="stroke:#00008B;stroke-width:1;"/><text fill="#000000" font-family="Verdana" font-size="11" lengthAdjust="spacing" textLength="64.8076" x="501.532" y="333.1831">&#7842;nh h&#7907;p l&#7879;?</text><text fill="#000000" font-family="Verdana" font-size="11" lengthAdjust="spacing" textLength="34.8691" x="578.3396" y="326.7808">Kh&#244;ng</text><rect fill="#000000" height="6" rx="2.5" ry="2.5" style="stroke:#000000;stroke-width:1;" width="516.1113" x="275.8801" y="382.7739"/><rect fill="#E0FFFF" height="47.9375" rx="12.5" ry="12.5" style="stroke:#00008B;stroke-width:1;" width="244.9238" x="289.8801" y="408.7739"/><text fill="#000000" font-family="Verdana" font-size="12" lengthAdjust="spacing" textLength="224.9238" x="299.8801" y="429.9126">Ti&#7873;n x&#7917; l&#253;: Ch&#7841;y thu&#7853;t to&#225;n DullRazor</text><text fill="#000000" font-family="Verdana" font-size="12" lengthAdjust="spacing" textLength="142.5996" x="299.8801" y="443.8813">(Lo&#7841;i b&#7887; nhi&#7877;u l&#244;ng/t&#243;c)</text><rect fill="#E0FFFF" height="47.9375" rx="12.5" ry="12.5" style="stroke:#00008B;stroke-width:1;" width="215.1875" x="562.804" y="408.7739"/><text fill="#000000" font-family="Verdana" font-size="12" lengthAdjust="spacing" textLength="175.125" x="572.804" y="429.9126">Ti&#7873;n x&#7917; l&#253;: Ch&#7841;y YOLOv8-Seg</text><text fill="#000000" font-family="Verdana" font-size="12" lengthAdjust="spacing" textLength="195.1875" x="572.804" y="443.8813">(Ph&#226;n &#273;o&#7841;n v&#249;ng t&#7893;n th&#432;&#417;ng da)</text><rect fill="#000000" height="6" rx="2.5" ry="2.5" style="stroke:#000000;stroke-width:1;" width="516.1113" x="275.8801" y="476.7114"/><rect fill="#E0FFFF" height="33.9688" rx="12.5" ry="12.5" style="stroke:#00008B;stroke-width:1;" width="349.4727" x="359.1995" y="502.7114"/><text fill="#000000" font-family="Verdana" font-size="12" lengthAdjust="spacing" textLength="329.4727" x="369.1995" y="523.8501">Chuy&#7875;n &#273;&#7893;i k&#237;ch th&#432;&#7899;c v&#224; chu&#7849;n h&#243;a Tensor (380x380)</text><rect fill="#E0FFFF" height="33.9688" rx="12.5" ry="12.5" style="stroke:#00008B;stroke-width:1;" width="332.6328" x="367.6194" y="556.6802"/><text fill="#000000" font-family="Verdana" font-size="12" lengthAdjust="spacing" textLength="312.6328" x="377.6194" y="577.8188">M&#244; h&#236;nh EfficientNet-B4 th&#7921;c hi&#7879;n Suy lu&#7853;n (Predict)</text><polygon fill="#E0FFFF" points="481.3232,610.6489,586.5483,610.6489,598.5483,622.6489,586.5483,634.6489,481.3232,634.6489,469.3232,622.6489,481.3232,610.6489" style="stroke:#00008B;stroke-width:1;"/><text fill="#000000" font-family="Verdana" font-size="11" lengthAdjust="spacing" textLength="105.2251" x="481.3232" y="626.457">Ph&#225;t hi&#7879;n c&#243; b&#7879;nh?</text><text fill="#000000" font-family="Verdana" font-size="11" lengthAdjust="spacing" textLength="14.4106" x="454.9126" y="620.0547">C&#243;</text><text fill="#000000" font-family="Verdana" font-size="11" lengthAdjust="spacing" textLength="69.2388" x="598.5483" y="620.0547">Kh&#244;ng r&#245;/L&#7895;i</text><rect fill="#E0FFFF" height="33.9688" rx="12.5" ry="12.5" style="stroke:#00008B;stroke-width:1;" width="208.0098" x="287.2502" y="644.6489"/><text fill="#000000" font-family="Verdana" font-size="12" lengthAdjust="spacing" textLength="188.0098" x="297.2502" y="665.7876">Tr&#237;ch xu&#7845;t &#273;&#7863;c tr&#432;ng Layer cu&#7889;i</text><rect fill="#E0FFFF" height="33.9688" rx="12.5" ry="12.5" style="stroke:#00008B;stroke-width:1;" width="190.0625" x="296.2239" y="698.6177"/><text fill="#000000" font-family="Verdana" font-size="12" lengthAdjust="spacing" textLength="170.0625" x="306.2239" y="719.7563">Sinh b&#7843;n &#273;&#7891; nhi&#7879;t Grad-CAM</text><rect fill="#E0FFFF" height="33.9688" rx="12.5" ry="12.5" style="stroke:#00008B;stroke-width:1;" width="315.9277" x="233.2913" y="752.5864"/><text fill="#000000" font-family="Verdana" font-size="12" lengthAdjust="spacing" textLength="295.9277" x="243.2913" y="773.7251">&#272;&#7883;nh d&#7841;ng k&#7871;t qu&#7843; (Top 3 nh&#227;n b&#7879;nh + &#272;&#7897; t&#7921; tin)</text><rect fill="#E0FFFF" height="33.9688" rx="12.5" ry="12.5" style="stroke:#00008B;stroke-width:1;" width="214.7949" x="569.219" y="644.6489"/><text fill="#000000" font-family="Verdana" font-size="12" lengthAdjust="spacing" textLength="194.7949" x="579.219" y="665.7876">Tr&#7841;ng th&#225;i: Kh&#244;ng th&#7875; nh&#7853;n di&#7879;n</text><polygon fill="#E0FFFF" points="533.9358,792.5552,545.9358,804.5552,533.9358,816.5552,521.9358,804.5552,533.9358,792.5552" style="stroke:#00008B;stroke-width:1;"/><rect fill="#E0FFFF" height="33.9688" rx="12.5" ry="12.5" style="stroke:#00008B;stroke-width:1;" width="258.0254" x="404.9231" y="836.5552"/><text fill="#000000" font-family="Verdana" font-size="12" lengthAdjust="spacing" textLength="238.0254" x="414.9231" y="857.6938">L&#432;u l&#7883;ch s&#7917; ch&#7849;n &#273;o&#225;n v&#224;o C&#417; s&#7903; d&#7919; li&#7879;u</text><rect fill="#E0FFFF" height="33.9688" rx="12.5" ry="12.5" style="stroke:#00008B;stroke-width:1;" width="198.459" x="434.7063" y="890.5239"/><text fill="#000000" font-family="Verdana" font-size="12" lengthAdjust="spacing" textLength="178.459" x="444.7063" y="911.6626">Tr&#7843; k&#7871;t qu&#7843; JSON v&#7873; Frontend</text><rect fill="#E0FFFF" height="33.9688" rx="12.5" ry="12.5" style="stroke:#00008B;stroke-width:1;" width="291.3652" x="388.2532" y="944.4927"/><text fill="#000000" font-family="Verdana" font-size="12" lengthAdjust="spacing" textLength="271.3652" x="398.2532" y="965.6313">Hi&#7875;n th&#7883; K&#7871;t qu&#7843; &amp; Grad-CAM cho ng&#432;&#7901;i d&#249;ng</text><polygon fill="#E0FFFF" points="432.6584,998.4614,635.2131,998.4614,647.2131,1010.4614,635.2131,1022.4614,432.6584,1022.4614,420.6584,1010.4614,432.6584,998.4614" style="stroke:#00008B;stroke-width:1;"/><text fill="#000000" font-family="Verdana" font-size="11" lengthAdjust="spacing" textLength="202.5547" x="432.6584" y="1014.2695">T&#224;i kho&#7843;n &#273;ang &#273;&#259;ng nh&#7853;p l&#224; B&#225;c s&#297;?</text><text fill="#000000" font-family="Verdana" font-size="11" lengthAdjust="spacing" textLength="29.4497" x="391.2087" y="1007.8672">&#272;&#250;ng</text><text fill="#000000" font-family="Verdana" font-size="11" lengthAdjust="spacing" textLength="142.3716" x="647.2131" y="1007.8672">Kh&#244;ng (B&#7879;nh nh&#226;n/Guest)</text><rect fill="#E0FFFF" height="33.9688" rx="12.5" ry="12.5" style="stroke:#00008B;stroke-width:1;" width="266.6621" x="161.4429" y="1032.4614"/><text fill="#000000" font-family="Verdana" font-size="12" lengthAdjust="spacing" textLength="246.6621" x="171.4429" y="1053.6001">Hi&#7875;n th&#7883; ch&#7913;c n&#259;ng "&#272;&#225;nh gi&#225; k&#7871;t qu&#7843; AI"</text><polygon fill="#E0FFFF" points="190.1584,1086.4302,399.3894,1086.4302,411.3894,1098.4302,399.3894,1110.4302,190.1584,1110.4302,178.1584,1098.4302,190.1584,1086.4302" style="stroke:#00008B;stroke-width:1;"/><text fill="#000000" font-family="Verdana" font-size="11" lengthAdjust="spacing" textLength="209.231" x="190.1584" y="1102.2383">B&#225;c s&#297; &#273;&#225;nh gi&#225; AI &#273;o&#225;n &#273;&#250;ng hay sai?</text><text fill="#000000" font-family="Verdana" font-size="11" lengthAdjust="spacing" textLength="54.4468" x="123.7117" y="1095.8359">Ch&#237;nh x&#225;c</text><text fill="#000000" font-family="Verdana" font-size="11" lengthAdjust="spacing" textLength="43.1191" x="411.3894" y="1095.8359">Sai l&#7879;ch</text><rect fill="#E0FFFF" height="33.9688" rx="12.5" ry="12.5" style="stroke:#00008B;stroke-width:1;" width="242.3223" x="11" y="1120.4302"/><text fill="#000000" font-family="Verdana" font-size="12" lengthAdjust="spacing" textLength="222.3223" x="21" y="1141.5688">H&#7879; th&#7889;ng ghi nh&#7853;n: is_correct = True</text><rect fill="#E0FFFF" height="33.9688" rx="12.5" ry="12.5" style="stroke:#00008B;stroke-width:1;" width="368.1289" x="273.3223" y="1120.4302"/><text fill="#000000" font-family="Verdana" font-size="12" lengthAdjust="spacing" textLength="348.1289" x="283.3223" y="1141.5688">B&#225;c s&#297; ch&#7885;n l&#7841;i B&#7879;nh l&#253; th&#7921;c t&#7871; (Actual Disease) t&#7915; T&#7915; &#273;i&#7875;n</text><rect fill="#E0FFFF" height="33.9688" rx="12.5" ry="12.5" style="stroke:#00008B;stroke-width:1;" width="308.3926" x="303.1904" y="1174.3989"/><text fill="#000000" font-family="Verdana" font-size="12" lengthAdjust="spacing" textLength="288.3926" x="313.1904" y="1195.5376">B&#225;c s&#297; nh&#7853;p Ghi ch&#250; chuy&#234;n m&#244;n (Expert Notes)</text><rect fill="#E0FFFF" height="33.9688" rx="12.5" ry="12.5" style="stroke:#00008B;stroke-width:1;" width="246.2949" x="334.2393" y="1228.3677"/><text fill="#000000" font-family="Verdana" font-size="12" lengthAdjust="spacing" textLength="226.2949" x="344.2393" y="1249.5063">H&#7879; th&#7889;ng ghi nh&#7853;n: is_correct = False</text><polygon fill="#E0FFFF" points="294.7739,1268.3364,306.7739,1280.3364,294.7739,1292.3364,282.7739,1280.3364,294.7739,1268.3364" style="stroke:#00008B;stroke-width:1;"/><rect fill="#E0FFFF" height="33.9688" rx="12.5" ry="12.5" style="stroke:#00008B;stroke-width:1;" width="257.2168" x="166.1655" y="1312.3364"/><text fill="#000000" font-family="Verdana" font-size="12" lengthAdjust="spacing" textLength="237.2168" x="176.1655" y="1333.4751">L&#432;u b&#7843;n ghi v&#224;o b&#7843;ng Expert_Feedback</text><rect fill="#E0FFFF" height="33.9688" rx="12.5" ry="12.5" style="stroke:#00008B;stroke-width:1;" width="325.6426" x="131.9526" y="1366.3052"/><text fill="#000000" font-family="Verdana" font-size="12" lengthAdjust="spacing" textLength="305.6426" x="141.9526" y="1387.4438">&#272;&#225;nh d&#7845;u d&#7919; li&#7879;u ch&#7901; ki&#7875;m duy&#7879;t &#273;&#7875; Retrain Model</text><rect fill="#E0FFFF" height="33.9688" rx="12.5" ry="12.5" style="stroke:#00008B;stroke-width:1;" width="203.293" x="671.4512" y="1032.4614"/><text fill="#000000" font-family="Verdana" font-size="12" lengthAdjust="spacing" textLength="183.293" x="681.4512" y="1053.6001">Ghi nh&#7853;n phi&#234;n kh&#225;m ho&#224;n t&#7845;t</text><polygon fill="#E0FFFF" points="533.9358,1406.2739,545.9358,1418.2739,533.9358,1430.2739,521.9358,1418.2739,533.9358,1406.2739" style="stroke:#00008B;stroke-width:1;"/><ellipse cx="533.9358" cy="1461.2739" fill="none" rx="11" ry="11" style="stroke:#000000;stroke-width:1;"/><ellipse cx="533.9358" cy="1461.2739" fill="#FFFFFF" rx="6" ry="6" style="stroke:#000000;stroke-width:1;"/><line style="stroke:#000000;stroke-width:1;" x1="533.9358" x2="533.9358" y1="30" y2="50"/><polygon fill="#000000" points="529.9358,40,533.9358,50,537.9358,40,533.9358,44" style="stroke:#000000;stroke-width:1;"/><line style="stroke:#000000;stroke-width:1;" x1="533.9358" x2="533.9358" y1="83.9688" y2="103.9688"/><polygon fill="#000000" points="529.9358,93.9688,533.9358,103.9688,537.9358,93.9688,533.9358,97.9688" style="stroke:#000000;stroke-width:1;"/><line style="stroke:#000000;stroke-width:1;" x1="533.9358" x2="533.9358" y1="235.9063" y2="263.4063"/><polygon fill="#000000" points="529.9358,253.4063,533.9358,263.4063,537.9358,253.4063,533.9358,257.4063" style="stroke:#000000;stroke-width:1;"/><line style="stroke:#000000;stroke-width:1;" x1="533.9358" x2="533.9358" y1="181.9375" y2="201.9375"/><polygon fill="#000000" points="529.9358,191.9375,533.9358,201.9375,537.9358,191.9375,533.9358,195.9375" style="stroke:#000000;stroke-width:1;"/><line style="stroke:#000000;stroke-width:1;" x1="578.3396" x2="718.6213" y1="329.375" y2="329.375"/><polygon fill="#000000" points="714.6213,255.9063,718.6213,245.9063,722.6213,255.9063,718.6213,251.9063" style="stroke:#000000;stroke-width:1;"/><line style="stroke:#000000;stroke-width:1;" x1="718.6213" x2="718.6213" y1="169.9375" y2="329.375"/><line style="stroke:#000000;stroke-width:1;" x1="718.6213" x2="545.9358" y1="169.9375" y2="169.9375"/><polygon fill="#000000" points="555.9358,165.9375,545.9358,169.9375,555.9358,173.9375,551.9358,169.9375" style="stroke:#000000;stroke-width:1;"/><line style="stroke:#000000;stroke-width:1;" x1="533.9358" x2="533.9358" y1="297.375" y2="317.375"/><polygon fill="#000000" points="529.9358,307.375,533.9358,317.375,537.9358,307.375,533.9358,311.375" style="stroke:#000000;stroke-width:1;"/><line style="stroke:#000000;stroke-width:1;" x1="533.9358" x2="533.9358" y1="137.9375" y2="157.9375"/><polygon fill="#000000" points="529.9358,147.9375,533.9358,157.9375,537.9358,147.9375,533.9358,151.9375" style="stroke:#000000;stroke-width:1;"/><line style="stroke:#000000;stroke-width:1;" x1="412.342" x2="412.342" y1="388.7739" y2="408.7739"/><polygon fill="#000000" points="408.342,398.7739,412.342,408.7739,416.342,398.7739,412.342,402.7739" style="stroke:#000000;stroke-width:1;"/><line style="stroke:#000000;stroke-width:1;" x1="670.3977" x2="670.3977" y1="388.7739" y2="408.7739"/><polygon fill="#000000" points="666.3977,398.7739,670.3977,408.7739,674.3977,398.7739,670.3977,402.7739" style="stroke:#000000;stroke-width:1;"/><line style="stroke:#000000;stroke-width:1;" x1="412.342" x2="412.342" y1="456.7114" y2="476.7114"/><polygon fill="#000000" points="408.342,466.7114,412.342,476.7114,416.342,466.7114,412.342,470.7114" style="stroke:#000000;stroke-width:1;"/><line style="stroke:#000000;stroke-width:1;" x1="670.3977" x2="670.3977" y1="456.7114" y2="476.7114"/><polygon fill="#000000" points="666.3977,466.7114,670.3977,476.7114,674.3977,466.7114,670.3977,470.7114" style="stroke:#000000;stroke-width:1;"/><line style="stroke:#000000;stroke-width:1;" x1="533.9358" x2="533.9358" y1="341.375" y2="382.7739"/><polygon fill="#000000" points="529.9358,372.7739,533.9358,382.7739,537.9358,372.7739,533.9358,376.7739" style="stroke:#000000;stroke-width:1;"/><text fill="#000000" font-family="Verdana" font-size="11" lengthAdjust="spacing" textLength="14.4106" x="537.9358" y="362.6797">C&#243;</text><line style="stroke:#000000;stroke-width:1;" x1="533.9358" x2="533.9358" y1="482.7114" y2="502.7114"/><polygon fill="#000000" points="529.9358,492.7114,533.9358,502.7114,537.9358,492.7114,533.9358,496.7114" style="stroke:#000000;stroke-width:1;"/><line style="stroke:#000000;stroke-width:1;" x1="533.9358" x2="533.9358" y1="536.6802" y2="556.6802"/><polygon fill="#000000" points="529.9358,546.6802,533.9358,556.6802,537.9358,546.6802,533.9358,550.6802" style="stroke:#000000;stroke-width:1;"/><line style="stroke:#000000;stroke-width:1;" x1="391.2551" x2="391.2551" y1="678.6177" y2="698.6177"/><polygon fill="#000000" points="387.2551,688.6177,391.2551,698.6177,395.2551,688.6177,391.2551,692.6177" style="stroke:#000000;stroke-width:1;"/><line style="stroke:#000000;stroke-width:1;" x1="391.2551" x2="391.2551" y1="732.5864" y2="752.5864"/><polygon fill="#000000" points="387.2551,742.5864,391.2551,752.5864,395.2551,742.5864,391.2551,746.5864" style="stroke:#000000;stroke-width:1;"/><line style="stroke:#000000;stroke-width:1;" x1="469.3232" x2="391.2551" y1="622.6489" y2="622.6489"/><line style="stroke:#000000;stroke-width:1;" x1="391.2551" x2="391.2551" y1="622.6489" y2="644.6489"/><polygon fill="#000000" points="387.2551,634.6489,391.2551,644.6489,395.2551,634.6489,391.2551,638.6489" style="stroke:#000000;stroke-width:1;"/><line style="stroke:#000000;stroke-width:1;" x1="598.5483" x2="676.6165" y1="622.6489" y2="622.6489"/><line style="stroke:#000000;stroke-width:1;" x1="676.6165" x2="676.6165" y1="622.6489" y2="644.6489"/><polygon fill="#000000" points="672.6165,634.6489,676.6165,644.6489,680.6165,634.6489,676.6165,638.6489" style="stroke:#000000;stroke-width:1;"/><line style="stroke:#000000;stroke-width:1;" x1="391.2551" x2="391.2551" y1="786.5552" y2="804.5552"/><line style="stroke:#000000;stroke-width:1;" x1="391.2551" x2="521.9358" y1="804.5552" y2="804.5552"/><polygon fill="#000000" points="511.9358,800.5552,521.9358,804.5552,511.9358,808.5552,515.9358,804.5552" style="stroke:#000000;stroke-width:1;"/><line style="stroke:#000000;stroke-width:1;" x1="676.6165" x2="676.6165" y1="678.6177" y2="804.5552"/><line style="stroke:#000000;stroke-width:1;" x1="676.6165" x2="545.9358" y1="804.5552" y2="804.5552"/><polygon fill="#000000" points="555.9358,800.5552,545.9358,804.5552,555.9358,808.5552,551.9358,804.5552" style="stroke:#000000;stroke-width:1;"/><line style="stroke:#000000;stroke-width:1;" x1="533.9358" x2="533.9358" y1="590.6489" y2="610.6489"/><polygon fill="#000000" points="529.9358,600.6489,533.9358,610.6489,537.9358,600.6489,533.9358,604.6489" style="stroke:#000000;stroke-width:1;"/><line style="stroke:#000000;stroke-width:1;" x1="533.9358" x2="533.9358" y1="816.5552" y2="836.5552"/><polygon fill="#000000" points="529.9358,826.5552,533.9358,836.5552,537.9358,826.5552,533.9358,830.5552" style="stroke:#000000;stroke-width:1;"/><line style="stroke:#000000;stroke-width:1;" x1="533.9358" x2="533.9358" y1="870.5239" y2="890.5239"/><polygon fill="#000000" points="529.9358,880.5239,533.9358,890.5239,537.9358,880.5239,533.9358,884.5239" style="stroke:#000000;stroke-width:1;"/><line style="stroke:#000000;stroke-width:1;" x1="533.9358" x2="533.9358" y1="924.4927" y2="944.4927"/><polygon fill="#000000" points="529.9358,934.4927,533.9358,944.4927,537.9358,934.4927,533.9358,938.4927" style="stroke:#000000;stroke-width:1;"/><line style="stroke:#000000;stroke-width:1;" x1="457.3867" x2="457.3867" y1="1154.3989" y2="1174.3989"/><polygon fill="#000000" points="453.3867,1164.3989,457.3867,1174.3989,461.3867,1164.3989,457.3867,1168.3989" style="stroke:#000000;stroke-width:1;"/><line style="stroke:#000000;stroke-width:1;" x1="457.3867" x2="457.3867" y1="1208.3677" y2="1228.3677"/><polygon fill="#000000" points="453.3867,1218.3677,457.3867,1228.3677,461.3867,1218.3677,457.3867,1222.3677" style="stroke:#000000;stroke-width:1;"/><line style="stroke:#000000;stroke-width:1;" x1="178.1584" x2="132.1611" y1="1098.4302" y2="1098.4302"/><line style="stroke:#000000;stroke-width:1;" x1="132.1611" x2="132.1611" y1="1098.4302" y2="1120.4302"/><polygon fill="#000000" points="128.1611,1110.4302,132.1611,1120.4302,136.1611,1110.4302,132.1611,1114.4302" style="stroke:#000000;stroke-width:1;"/><line style="stroke:#000000;stroke-width:1;" x1="411.3894" x2="457.3867" y1="1098.4302" y2="1098.4302"/><line style="stroke:#000000;stroke-width:1;" x1="457.3867" x2="457.3867" y1="1098.4302" y2="1120.4302"/><polygon fill="#000000" points="453.3867,1110.4302,457.3867,1120.4302,461.3867,1110.4302,457.3867,1114.4302" style="stroke:#000000;stroke-width:1;"/><line style="stroke:#000000;stroke-width:1;" x1="132.1611" x2="132.1611" y1="1154.3989" y2="1280.3364"/><line style="stroke:#000000;stroke-width:1;" x1="132.1611" x2="282.7739" y1="1280.3364" y2="1280.3364"/><polygon fill="#000000" points="272.7739,1276.3364,282.7739,1280.3364,272.7739,1284.3364,276.7739,1280.3364" style="stroke:#000000;stroke-width:1;"/><line style="stroke:#000000;stroke-width:1;" x1="457.3867" x2="457.3867" y1="1262.3364" y2="1280.3364"/><line style="stroke:#000000;stroke-width:1;" x1="457.3867" x2="306.7739" y1="1280.3364" y2="1280.3364"/><polygon fill="#000000" points="316.7739,1276.3364,306.7739,1280.3364,316.7739,1284.3364,312.7739,1280.3364" style="stroke:#000000;stroke-width:1;"/><line style="stroke:#000000;stroke-width:1;" x1="294.7739" x2="294.7739" y1="1066.4302" y2="1086.4302"/><polygon fill="#000000" points="290.7739,1076.4302,294.7739,1086.4302,298.7739,1076.4302,294.7739,1080.4302" style="stroke:#000000;stroke-width:1;"/><line style="stroke:#000000;stroke-width:1;" x1="294.7739" x2="294.7739" y1="1292.3364" y2="1312.3364"/><polygon fill="#000000" points="290.7739,1302.3364,294.7739,1312.3364,298.7739,1302.3364,294.7739,1306.3364" style="stroke:#000000;stroke-width:1;"/><line style="stroke:#000000;stroke-width:1;" x1="294.7739" x2="294.7739" y1="1346.3052" y2="1366.3052"/><polygon fill="#000000" points="290.7739,1356.3052,294.7739,1366.3052,298.7739,1356.3052,294.7739,1360.3052" style="stroke:#000000;stroke-width:1;"/><line style="stroke:#000000;stroke-width:1;" x1="420.6584" x2="294.7739" y1="1010.4614" y2="1010.4614"/><line style="stroke:#000000;stroke-width:1;" x1="294.7739" x2="294.7739" y1="1010.4614" y2="1032.4614"/><polygon fill="#000000" points="290.7739,1022.4614,294.7739,1032.4614,298.7739,1022.4614,294.7739,1026.4614" style="stroke:#000000;stroke-width:1;"/><line style="stroke:#000000;stroke-width:1;" x1="647.2131" x2="773.0977" y1="1010.4614" y2="1010.4614"/><line style="stroke:#000000;stroke-width:1;" x1="773.0977" x2="773.0977" y1="1010.4614" y2="1032.4614"/><polygon fill="#000000" points="769.0977,1022.4614,773.0977,1032.4614,777.0977,1022.4614,773.0977,1026.4614" style="stroke:#000000;stroke-width:1;"/><line style="stroke:#000000;stroke-width:1;" x1="294.7739" x2="294.7739" y1="1400.2739" y2="1418.2739"/><line style="stroke:#000000;stroke-width:1;" x1="294.7739" x2="521.9358" y1="1418.2739" y2="1418.2739"/><polygon fill="#000000" points="511.9358,1414.2739,521.9358,1418.2739,511.9358,1422.2739,515.9358,1418.2739" style="stroke:#000000;stroke-width:1;"/><line style="stroke:#000000;stroke-width:1;" x1="773.0977" x2="773.0977" y1="1066.4302" y2="1418.2739"/><line style="stroke:#000000;stroke-width:1;" x1="773.0977" x2="545.9358" y1="1418.2739" y2="1418.2739"/><polygon fill="#000000" points="555.9358,1414.2739,545.9358,1418.2739,555.9358,1422.2739,551.9358,1418.2739" style="stroke:#000000;stroke-width:1;"/><line style="stroke:#000000;stroke-width:1;" x1="533.9358" x2="533.9358" y1="978.4614" y2="998.4614"/><polygon fill="#000000" points="529.9358,988.4614,533.9358,998.4614,537.9358,988.4614,533.9358,992.4614" style="stroke:#000000;stroke-width:1;"/><line style="stroke:#000000;stroke-width:1;" x1="533.9358" x2="533.9358" y1="1430.2739" y2="1450.2739"/><polygon fill="#000000" points="529.9358,1440.2739,533.9358,1450.2739,537.9358,1440.2739,533.9358,1444.2739" style="stroke:#000000;stroke-width:1;"/><?plantuml-src bLNVQoDL57wVl-BO1vaWfSBwi2IeDEcsksxQBfie2C9ozyxDt4icT-ATEpLHV90YVLZ4BRA8o6ApeGzLYrsw8YQ83pVa_vZ_n7Fk9DcseE13GZfpVdpdEzzt-eQLeYUWdp2bWwohT9yPrWF6hJfGTWXV101rnhknINCTDT8aDT1KiRID8TFqBZMHCENpBMQwzIGNmPT1a5bcR53TY-SNnVIvWiZzgMFWifX-ey6wSor1pmxnqLf35fCp3RFZr8tqMYsetbN5z123CFO9n8gb4E6J8mqVzfEKHL1CNcXP2m8Z-e9PnF0lNJeg4N3WJk1nCJdjmLgxc8mL9Evdwe9PTx6extACELrgsWDh62B1neWlAYOZV4CLeXn_9DHaZ3_2ZrYY8cP5fRO00Pz9QXPwQ80bntr8iFpx5L0PXFUbUwNZIh3-7ZJS9KBlfAPB4DhOzIiDWs9wZi3-gWAHCHeYghoOd5kmn0bivKdoa7sUcazqs4mnGE58qsz1Iqp_EiTChBvXtIL7G5GQM4ph_8y67-ytzmzkhxT4Z3KVIFV2Bu06ndc9GrjCdz4EvXTp8Y5YM5he23poeDgG-T1lYSXwfg3hphdquSNqH-uvupG3BbQwImPjeJDKI7Zhzji3_62nwgvxXUz-HRxkT3gAAw7jdh3hzNVyJbvoaENMM_aG4g93G_Z0Y4XnY-c1wW017zbb77UNHCkHbiWwgXh3aUoAPy5uU0EiSce9ykGFZgkUN-1aJJOK1dYECb1U5Ys5a50outAuxqgQZopi61QjDpPtVTJiwJMHT8l9tnO-nGPZ2Djf7svXciCI9I9u2oZX1wBr9LYbYSqa4qjfW76_RpIBwVTgWRUiQd4-LOL53D5oY6Kz5QKb_4vK1nVId5_a9BadE6T6s-PNRKKBIQ4n7z6xdn3qz3T8g4AEYw1kusiJVD3QtuC3L0vicrHRx77JblUlHB-vOWQRfg2lcH4tvLVLTYUe4fakU6Kup-pO7m0_4De59LDt8mxPx6ormDbJDo7Za5kljYU7d_7b1S6e4N8SApUwDiRcFMzqQh-iZ4rVnsxUMzA3Jx4FI3Q4ZAdN-f7-K0qmcJ3Sl1cnL8jrLD7cZtXgZE0MteMsoGLrBbVSOieV0ouNHLPW5eSgyPQkbqf1bouDO74M23UvpLa2MoeJB1CLaj0lqAQlsR7df7QZweBG7KJ7fPkG4OTuzA27AeBmpg0lZ8Mzr8giKli_Ksqp7CUFvJM7ULvqfLKeoulC_nb3sURHjX3HO_ptiV2CvnujSvfVrQ3duVdo14TqMOwyJL7k3mMUPALXDur4SiCquO8oJVThOoSNcQruhUoiHe2-L3Hx5vtK0vcw4qsqdjgLSpARzly1?></g></svg>