<svg xmlns="http://www.w3.org/2000/svg" xmlns:xlink="http://www.w3.org/1999/xlink" contentStyleType="text/css" data-diagram-type="ACTIVITY" height="1711px" preserveAspectRatio="none" style="width:840px;height:1711px;background:#FFFFFF;" version="1.1" viewBox="0 0 840 1711" width="840px" zoomAndPan="magnify"><?plantuml 1.2026.3beta5?><defs/><g><ellipse cx="501.6006" cy="25" fill="#222222" rx="10" ry="10" style="stroke:#222222;stroke-width:1;"/><rect fill="#E0FFFF" height="33.9688" rx="12.5" ry="12.5" style="stroke:#00BFFF;stroke-width:0.5;" width="262.6895" x="370.2559" y="55"/><text fill="#000000" font-family="sans-serif" font-size="12" lengthAdjust="spacing" textLength="242.6895" x="380.2559" y="76.1387">Ng&#432;&#7901;i d&#249;ng ch&#7885;n t&#237;nh n&#259;ng "Ch&#7849;n &#273;o&#225;n"</text><rect fill="#E0FFFF" height="33.9688" rx="12.5" ry="12.5" style="stroke:#00BFFF;stroke-width:0.5;" width="199.1152" x="402.043" y="108.9688"/><text fill="#000000" font-family="sans-serif" font-size="12" lengthAdjust="spacing" textLength="179.1152" x="412.043" y="130.1074">Hi&#7875;n th&#7883; giao di&#7879;n Upload &#7842;nh</text><rect fill="#E0FFFF" height="33.9688" rx="12.5" ry="12.5" style="stroke:#00BFFF;stroke-width:0.5;" width="247.9414" x="377.6299" y="206.9375"/><text fill="#000000" font-family="sans-serif" font-size="12" lengthAdjust="spacing" textLength="227.9414" x="387.6299" y="228.0762">Ng&#432;&#7901;i d&#249;ng ch&#7885;n file v&#224; b&#7845;m "T&#7843;i l&#234;n"</text><rect fill="#E0FFFF" height="33.9688" rx="12.5" ry="12.5" style="stroke:#00BFFF;stroke-width:0.5;" width="345.3711" x="328.915" y="268.4063"/><text fill="#000000" font-family="sans-serif" font-size="12" lengthAdjust="spacing" textLength="325.3711" x="338.915" y="289.5449">H&#7879; th&#7889;ng ki&#7875;m tra &#273;&#7883;nh d&#7841;ng v&#224; dung l&#432;&#7907;ng (Validate)</text><polygon fill="#FFFFFF" points="501.6006,162.9375,513.6006,174.9375,501.6006,186.9375,489.6006,174.9375,501.6006,162.9375" style="stroke:#00BFFF;stroke-width:0.5;"/><polygon fill="#FFFFFF" points="469.1968,322.375,534.0044,322.375,546.0044,334.375,534.0044,346.375,469.1968,346.375,457.1968,334.375,469.1968,322.375" style="stroke:#00BFFF;stroke-width:0.5;"/><text fill="#000000" font-family="sans-serif" font-size="11" lengthAdjust="spacing" textLength="64.8076" x="469.1968" y="338.1831">&#7842;nh h&#7907;p l&#7879;?</text><text fill="#000000" font-family="sans-serif" font-size="11" lengthAdjust="spacing" textLength="34.8691" x="546.0044" y="331.7808">Kh&#244;ng</text><rect fill="#555555" height="6" rx="2.5" ry="2.5" style="stroke:#555555;stroke-width:1;" width="516.1113" x="243.5449" y="387.7739"/><rect fill="#E0FFFF" height="47.9375" rx="12.5" ry="12.5" style="stroke:#00BFFF;stroke-width:0.5;" width="244.9238" x="257.5449" y="413.7739"/><text fill="#000000" font-family="sans-serif" font-size="12" lengthAdjust="spacing" textLength="224.9238" x="267.5449" y="434.9126">Ti&#7873;n x&#7917; l&#253;: Ch&#7841;y thu&#7853;t to&#225;n DullRazor</text><text fill="#000000" font-family="sans-serif" font-size="12" lengthAdjust="spacing" textLength="142.5996" x="267.5449" y="448.8813">(Lo&#7841;i b&#7887; nhi&#7877;u l&#244;ng/t&#243;c)</text><rect fill="#E0FFFF" height="47.9375" rx="12.5" ry="12.5" style="stroke:#00BFFF;stroke-width:0.5;" width="215.1875" x="530.4688" y="413.7739"/><text fill="#000000" font-family="sans-serif" font-size="12" lengthAdjust="spacing" textLength="175.125" x="540.4688" y="434.9126">Ti&#7873;n x&#7917; l&#253;: Ch&#7841;y YOLOv8-Seg</text><text fill="#000000" font-family="sans-serif" font-size="12" lengthAdjust="spacing" textLength="195.1875" x="540.4688" y="448.8813">(Ph&#226;n &#273;o&#7841;n v&#249;ng t&#7893;n th&#432;&#417;ng da)</text><rect fill="#555555" height="6" rx="2.5" ry="2.5" style="stroke:#555555;stroke-width:1;" width="516.1113" x="243.5449" y="481.7114"/><rect fill="#E0FFFF" height="33.9688" rx="12.5" ry="12.5" style="stroke:#00BFFF;stroke-width:0.5;" width="349.4727" x="326.8643" y="507.7114"/><text fill="#000000" font-family="sans-serif" font-size="12" lengthAdjust="spacing" textLength="329.4727" x="336.8643" y="528.8501">Chuy&#7875;n &#273;&#7893;i k&#237;ch th&#432;&#7899;c v&#224; chu&#7849;n h&#243;a Tensor (380x380)</text><rect fill="#E0FFFF" height="33.9688" rx="12.5" ry="12.5" style="stroke:#00BFFF;stroke-width:0.5;" width="347.4805" x="327.8604" y="561.6802"/><text fill="#000000" font-family="sans-serif" font-size="12" lengthAdjust="spacing" textLength="327.4805" x="337.8604" y="582.8188">M&#244; h&#236;nh EfficientNet-B4 th&#7921;c hi&#7879;n Suy lu&#7853;n (Inference)</text><rect fill="#E0FFFF" height="47.9375" rx="12.5" ry="12.5" style="stroke:#00BFFF;stroke-width:0.5;" width="273.6758" x="364.7627" y="615.6489"/><text fill="#000000" font-family="sans-serif" font-size="12" lengthAdjust="spacing" textLength="242.9297" x="374.7627" y="636.7876">H&#7853;u x&#7917; l&#253;: T&#237;nh to&#225;n x&#225;c su&#7845;t (Softmax),</text><text fill="#000000" font-family="sans-serif" font-size="12" lengthAdjust="spacing" textLength="253.6758" x="374.7627" y="650.7563">Tr&#237;ch xu&#7845;t Top-3 &amp; &#272;&#225;nh gi&#225; m&#7913;c &#273;&#7897; r&#7911;i ro</text><rect fill="#E0FFFF" height="33.9688" rx="12.5" ry="12.5" style="stroke:#00BFFF;stroke-width:0.5;" width="305.0996" x="349.0508" y="731.9888"/><text fill="#000000" font-family="sans-serif" font-size="12" lengthAdjust="spacing" textLength="285.0996" x="359.0508" y="753.1274">K&#237;ch ho&#7841;t C&#7843;nh b&#225;o kh&#7849;n c&#7845;p (Critical Warning)</text><polygon fill="#FFFFFF" points="402.0313,683.5864,601.1699,683.5864,613.1699,695.5864,601.1699,707.5864,402.0313,707.5864,390.0313,695.5864,402.0313,683.5864" style="stroke:#00BFFF;stroke-width:0.5;"/><text fill="#000000" font-family="sans-serif" font-size="11" lengthAdjust="spacing" textLength="14.4106" x="505.6006" y="717.7969">C&#243;</text><text fill="#000000" font-family="sans-serif" font-size="11" lengthAdjust="spacing" textLength="199.1387" x="402.0313" y="699.3945">C&#243; t&#237;n hi&#7879;u b&#7879;nh nguy hi&#7875;m &gt; 20%?</text><text fill="#000000" font-family="sans-serif" font-size="11" lengthAdjust="spacing" textLength="34.8691" x="613.1699" y="692.9922">Kh&#244;ng</text><polygon fill="#FFFFFF" points="501.6006,785.9575,513.6006,797.9575,501.6006,809.9575,489.6006,797.9575,501.6006,785.9575" style="stroke:#00BFFF;stroke-width:0.5;"/><rect fill="#E0FFFF" height="33.9688" rx="12.5" ry="12.5" style="stroke:#00BFFF;stroke-width:0.5;" width="292.3555" x="355.4229" y="829.9575"/><text fill="#000000" font-family="sans-serif" font-size="12" lengthAdjust="spacing" textLength="272.3555" x="365.4229" y="851.0962">Tr&#237;ch xu&#7845;t &#273;&#7863;c tr&#432;ng Layer cu&#7889;i (features[-2])</text><rect fill="#E0FFFF" height="33.9688" rx="12.5" ry="12.5" style="stroke:#00BFFF;stroke-width:0.5;" width="190.0625" x="406.5693" y="883.9263"/><text fill="#000000" font-family="sans-serif" font-size="12" lengthAdjust="spacing" textLength="170.0625" x="416.5693" y="905.0649">Sinh b&#7843;n &#273;&#7891; nhi&#7879;t Grad-CAM</text><rect fill="#E0FFFF" height="33.9688" rx="12.5" ry="12.5" style="stroke:#00BFFF;stroke-width:0.5;" width="225.9102" x="388.6455" y="937.895"/><text fill="#000000" font-family="sans-serif" font-size="12" lengthAdjust="spacing" textLength="205.9102" x="398.6455" y="959.0337">&#272;&#7883;nh d&#7841;ng k&#7871;t qu&#7843; (JSON Schema)</text><polygon fill="#FFFFFF" points="432.0046,991.8638,571.1965,991.8638,583.1965,1003.8638,571.1965,1015.8638,432.0046,1015.8638,420.0046,1003.8638,432.0046,991.8638" style="stroke:#00BFFF;stroke-width:0.5;"/><text fill="#000000" font-family="sans-serif" font-size="11" lengthAdjust="spacing" textLength="139.1919" x="432.0046" y="1007.6719">T&#224;i kho&#7843;n &#273;&#227; &#273;&#259;ng nh&#7853;p?</text><text fill="#000000" font-family="sans-serif" font-size="11" lengthAdjust="spacing" textLength="129.9214" x="290.0833" y="1001.2695">C&#243; - User/Doctor/Admin</text><text fill="#000000" font-family="sans-serif" font-size="11" lengthAdjust="spacing" textLength="78.1387" x="583.1965" y="1001.2695">Kh&#244;ng - Guest</text><rect fill="#E0FFFF" height="33.9688" rx="12.5" ry="12.5" style="stroke:#00BFFF;stroke-width:0.5;" width="261.7461" x="224.0581" y="1025.8638"/><text fill="#000000" font-family="sans-serif" font-size="12" lengthAdjust="spacing" textLength="241.7461" x="234.0581" y="1047.0024">L&#432;u Document ch&#7849;n &#273;o&#225;n v&#224;o MongoDB</text><rect fill="#E0FFFF" height="33.9688" rx="12.5" ry="12.5" style="stroke:#00BFFF;stroke-width:0.5;" width="284.9316" x="505.8042" y="1025.8638"/><text fill="#000000" font-family="sans-serif" font-size="12" lengthAdjust="spacing" textLength="264.9316" x="515.8042" y="1047.0024">B&#7887; qua b&#432;&#7899;c l&#432;u DB (B&#7843;o v&#7879; quy&#7873;n ri&#234;ng t&#432;)</text><polygon fill="#FFFFFF" points="501.6006,1065.8325,513.6006,1077.8325,501.6006,1089.8325,489.6006,1077.8325,501.6006,1065.8325" style="stroke:#00BFFF;stroke-width:0.5;"/><rect fill="#E0FFFF" height="33.9688" rx="12.5" ry="12.5" style="stroke:#00BFFF;stroke-width:0.5;" width="198.459" x="402.3711" y="1109.8325"/><text fill="#000000" font-family="sans-serif" font-size="12" lengthAdjust="spacing" textLength="178.459" x="412.3711" y="1130.9712">Tr&#7843; k&#7871;t qu&#7843; JSON v&#7873; Frontend</text><rect fill="#E0FFFF" height="33.9688" rx="12.5" ry="12.5" style="stroke:#00BFFF;stroke-width:0.5;" width="291.3652" x="355.918" y="1163.8013"/><text fill="#000000" font-family="sans-serif" font-size="12" lengthAdjust="spacing" textLength="271.3652" x="365.918" y="1184.9399">Hi&#7875;n th&#7883; K&#7871;t qu&#7843; &amp; Grad-CAM cho ng&#432;&#7901;i d&#249;ng</text><polygon fill="#FFFFFF" points="380.845,1217.77,622.3562,1217.77,634.3562,1229.77,622.3562,1241.77,380.845,1241.77,368.845,1229.77,380.845,1217.77" style="stroke:#00BFFF;stroke-width:0.5;"/><text fill="#000000" font-family="sans-serif" font-size="11" lengthAdjust="spacing" textLength="241.5112" x="380.845" y="1233.5781">T&#224;i kho&#7843;n &#273;ang &#273;&#259;ng nh&#7853;p l&#224; B&#225;c s&#297;/Admin?</text><text fill="#000000" font-family="sans-serif" font-size="11" lengthAdjust="spacing" textLength="29.4497" x="339.3953" y="1227.1758">&#272;&#250;ng</text><text fill="#000000" font-family="sans-serif" font-size="11" lengthAdjust="spacing" textLength="34.8691" x="634.3562" y="1227.1758">Kh&#244;ng</text><rect fill="#E0FFFF" height="33.9688" rx="12.5" ry="12.5" style="stroke:#00BFFF;stroke-width:0.5;" width="266.6621" x="151.5088" y="1251.77"/><text fill="#000000" font-family="sans-serif" font-size="12" lengthAdjust="spacing" textLength="246.6621" x="161.5088" y="1272.9087">Hi&#7875;n th&#7883; ch&#7913;c n&#259;ng "&#272;&#225;nh gi&#225; k&#7871;t qu&#7843; AI"</text><polygon fill="#FFFFFF" points="180.2244,1305.7388,389.4553,1305.7388,401.4553,1317.7388,389.4553,1329.7388,180.2244,1329.7388,168.2244,1317.7388,180.2244,1305.7388" style="stroke:#00BFFF;stroke-width:0.5;"/><text fill="#000000" font-family="sans-serif" font-size="11" lengthAdjust="spacing" textLength="209.231" x="180.2244" y="1321.5469">B&#225;c s&#297; &#273;&#225;nh gi&#225; AI &#273;o&#225;n &#273;&#250;ng hay sai?</text><text fill="#000000" font-family="sans-serif" font-size="11" lengthAdjust="spacing" textLength="54.4468" x="113.7776" y="1315.1445">Ch&#237;nh x&#225;c</text><text fill="#000000" font-family="sans-serif" font-size="11" lengthAdjust="spacing" textLength="43.1191" x="401.4553" y="1315.1445">Sai l&#7879;ch</text><rect fill="#E0FFFF" height="33.9688" rx="12.5" ry="12.5" style="stroke:#00BFFF;stroke-width:0.5;" width="242.3223" x="16" y="1339.7388"/><text fill="#000000" font-family="sans-serif" font-size="12" lengthAdjust="spacing" textLength="222.3223" x="26" y="1360.8774">H&#7879; th&#7889;ng ghi nh&#7853;n: is_correct = True</text><rect fill="#E0FFFF" height="33.9688" rx="12.5" ry="12.5" style="stroke:#00BFFF;stroke-width:0.5;" width="266.1348" x="299.4512" y="1339.7388"/><text fill="#000000" font-family="sans-serif" font-size="12" lengthAdjust="spacing" textLength="246.1348" x="309.4512" y="1360.8774">B&#225;c s&#297; ch&#7885;n l&#7841;i B&#7879;nh l&#253; th&#7921;c t&#7871; t&#7915; T&#7915; &#273;i&#7875;n</text><rect fill="#E0FFFF" height="33.9688" rx="12.5" ry="12.5" style="stroke:#00BFFF;stroke-width:0.5;" width="308.3926" x="278.3223" y="1393.7075"/><text fill="#000000" font-family="sans-serif" font-size="12" lengthAdjust="spacing" textLength="288.3926" x="288.3223" y="1414.8462">B&#225;c s&#297; nh&#7853;p Ghi ch&#250; chuy&#234;n m&#244;n (Expert Notes)</text><rect fill="#E0FFFF" height="33.9688" rx="12.5" ry="12.5" style="stroke:#00BFFF;stroke-width:0.5;" width="246.2949" x="309.3711" y="1447.6763"/><text fill="#000000" font-family="sans-serif" font-size="12" lengthAdjust="spacing" textLength="226.2949" x="319.3711" y="1468.8149">H&#7879; th&#7889;ng ghi nh&#7853;n: is_correct = False</text><polygon fill="#FFFFFF" points="284.8398,1487.645,296.8398,1499.645,284.8398,1511.645,272.8398,1499.645,284.8398,1487.645" style="stroke:#00BFFF;stroke-width:0.5;"/><rect fill="#E0FFFF" height="33.9688" rx="12.5" ry="12.5" style="stroke:#00BFFF;stroke-width:0.5;" width="301.9766" x="133.8516" y="1531.645"/><text fill="#000000" font-family="sans-serif" font-size="12" lengthAdjust="spacing" textLength="281.9766" x="143.8516" y="1552.7837">L&#432;u Document Expert_Feedback v&#224;o MongoDB</text><rect fill="#E0FFFF" height="33.9688" rx="12.5" ry="12.5" style="stroke:#00BFFF;stroke-width:0.5;" width="325.6426" x="122.0186" y="1585.6138"/><text fill="#000000" font-family="sans-serif" font-size="12" lengthAdjust="spacing" textLength="305.6426" x="132.0186" y="1606.7524">&#272;&#225;nh d&#7845;u d&#7919; li&#7879;u ch&#7901; ki&#7875;m duy&#7879;t &#273;&#7875; Retrain Model</text><rect fill="#E0FFFF" height="33.9688" rx="12.5" ry="12.5" style="stroke:#00BFFF;stroke-width:0.5;" width="203.293" x="616.7148" y="1251.77"/><text fill="#000000" font-family="sans-serif" font-size="12" lengthAdjust="spacing" textLength="183.293" x="626.7148" y="1272.9087">Ghi nh&#7853;n phi&#234;n kh&#225;m ho&#224;n t&#7845;t</text><polygon fill="#FFFFFF" points="501.6006,1625.5825,513.6006,1637.5825,501.6006,1649.5825,489.6006,1637.5825,501.6006,1625.5825" style="stroke:#00BFFF;stroke-width:0.5;"/><ellipse cx="501.6006" cy="1680.5825" fill="none" rx="11" ry="11" style="stroke:#222222;stroke-width:1;"/><ellipse cx="501.6006" cy="1680.5825" fill="#222222" rx="6" ry="6" style="stroke:#222222;stroke-width:1;"/><line style="stroke:#181818;stroke-width:1;" x1="501.6006" x2="501.6006" y1="35" y2="55"/><polygon fill="#181818" points="497.6006,45,505.6006,45,501.6006,55" style="stroke:#181818;stroke-width:1;"/><line style="stroke:#181818;stroke-width:1;" x1="501.6006" x2="501.6006" y1="88.9688" y2="108.9688"/><polygon fill="#181818" points="497.6006,98.9688,505.6006,98.9688,501.6006,108.9688" style="stroke:#181818;stroke-width:1;"/><line style="stroke:#181818;stroke-width:1;" x1="501.6006" x2="501.6006" y1="240.9063" y2="268.4063"/><polygon fill="#181818" points="497.6006,258.4063,505.6006,258.4063,501.6006,268.4063" style="stroke:#181818;stroke-width:1;"/><line style="stroke:#181818;stroke-width:1;" x1="501.6006" x2="501.6006" y1="186.9375" y2="206.9375"/><polygon fill="#181818" points="497.6006,196.9375,505.6006,196.9375,501.6006,206.9375" style="stroke:#181818;stroke-width:1;"/><line style="stroke:#181818;stroke-width:1;" x1="546.0044" x2="686.2861" y1="334.375" y2="334.375"/><polygon fill="#181818" points="682.2861,260.9063,686.2861,250.9063,690.2861,260.9063" style="stroke:#181818;stroke-width:1;"/><line style="stroke:#181818;stroke-width:1;" x1="686.2861" x2="686.2861" y1="174.9375" y2="334.375"/><line style="stroke:#181818;stroke-width:1;" x1="686.2861" x2="513.6006" y1="174.9375" y2="174.9375"/><polygon fill="#181818" points="523.6006,170.9375,513.6006,174.9375,523.6006,178.9375" style="stroke:#181818;stroke-width:1;"/><line style="stroke:#181818;stroke-width:1;" x1="501.6006" x2="501.6006" y1="302.375" y2="322.375"/><polygon fill="#181818" points="497.6006,312.375,505.6006,312.375,501.6006,322.375" style="stroke:#181818;stroke-width:1;"/><line style="stroke:#181818;stroke-width:1;" x1="501.6006" x2="501.6006" y1="142.9375" y2="162.9375"/><polygon fill="#181818" points="497.6006,152.9375,505.6006,152.9375,501.6006,162.9375" style="stroke:#181818;stroke-width:1;"/><line style="stroke:#181818;stroke-width:1;" x1="380.0068" x2="380.0068" y1="393.7739" y2="413.7739"/><polygon fill="#181818" points="376.0068,403.7739,384.0068,403.7739,380.0068,413.7739" style="stroke:#181818;stroke-width:1;"/><line style="stroke:#181818;stroke-width:1;" x1="638.0625" x2="638.0625" y1="393.7739" y2="413.7739"/><polygon fill="#181818" points="634.0625,403.7739,642.0625,403.7739,638.0625,413.7739" style="stroke:#181818;stroke-width:1;"/><line style="stroke:#181818;stroke-width:1;" x1="380.0068" x2="380.0068" y1="461.7114" y2="481.7114"/><polygon fill="#181818" points="376.0068,471.7114,384.0068,471.7114,380.0068,481.7114" style="stroke:#181818;stroke-width:1;"/><line style="stroke:#181818;stroke-width:1;" x1="638.0625" x2="638.0625" y1="461.7114" y2="481.7114"/><polygon fill="#181818" points="634.0625,471.7114,642.0625,471.7114,638.0625,481.7114" style="stroke:#181818;stroke-width:1;"/><line style="stroke:#181818;stroke-width:1;" x1="501.6006" x2="501.6006" y1="346.375" y2="387.7739"/><polygon fill="#181818" points="497.6006,377.7739,505.6006,377.7739,501.6006,387.7739" style="stroke:#181818;stroke-width:1;"/><text fill="#000000" font-family="sans-serif" font-size="11" lengthAdjust="spacing" textLength="14.4106" x="505.6006" y="367.6797">C&#243;</text><line style="stroke:#181818;stroke-width:1;" x1="501.6006" x2="501.6006" y1="487.7114" y2="507.7114"/><polygon fill="#181818" points="497.6006,497.7114,505.6006,497.7114,501.6006,507.7114" style="stroke:#181818;stroke-width:1;"/><line style="stroke:#181818;stroke-width:1;" x1="501.6006" x2="501.6006" y1="541.6802" y2="561.6802"/><polygon fill="#181818" points="497.6006,551.6802,505.6006,551.6802,501.6006,561.6802" style="stroke:#181818;stroke-width:1;"/><line style="stroke:#181818;stroke-width:1;" x1="501.6006" x2="501.6006" y1="595.6489" y2="615.6489"/><polygon fill="#181818" points="497.6006,605.6489,505.6006,605.6489,501.6006,615.6489" style="stroke:#181818;stroke-width:1;"/><line style="stroke:#181818;stroke-width:1;" x1="501.6006" x2="501.6006" y1="707.5864" y2="731.9888"/><polygon fill="#181818" points="497.6006,721.9888,505.6006,721.9888,501.6006,731.9888" style="stroke:#181818;stroke-width:1;"/><line style="stroke:#181818;stroke-width:1;" x1="613.1699" x2="664.1504" y1="695.5864" y2="695.5864"/><polygon fill="#181818" points="660.1504,738.9731,668.1504,738.9731,664.1504,748.9731" style="stroke:#181818;stroke-width:1;"/><line style="stroke:#181818;stroke-width:1;" x1="664.1504" x2="664.1504" y1="695.5864" y2="797.9575"/><line style="stroke:#181818;stroke-width:1;" x1="664.1504" x2="513.6006" y1="797.9575" y2="797.9575"/><polygon fill="#181818" points="523.6006,793.9575,513.6006,797.9575,523.6006,801.9575" style="stroke:#181818;stroke-width:1;"/><line style="stroke:#181818;stroke-width:1;" x1="501.6006" x2="501.6006" y1="765.9575" y2="785.9575"/><polygon fill="#181818" points="497.6006,775.9575,505.6006,775.9575,501.6006,785.9575" style="stroke:#181818;stroke-width:1;"/><line style="stroke:#181818;stroke-width:1;" x1="501.6006" x2="501.6006" y1="663.5864" y2="683.5864"/><polygon fill="#181818" points="497.6006,673.5864,505.6006,673.5864,501.6006,683.5864" style="stroke:#181818;stroke-width:1;"/><line style="stroke:#181818;stroke-width:1;" x1="501.6006" x2="501.6006" y1="809.9575" y2="829.9575"/><polygon fill="#181818" points="497.6006,819.9575,505.6006,819.9575,501.6006,829.9575" style="stroke:#181818;stroke-width:1;"/><line style="stroke:#181818;stroke-width:1;" x1="501.6006" x2="501.6006" y1="863.9263" y2="883.9263"/><polygon fill="#181818" points="497.6006,873.9263,505.6006,873.9263,501.6006,883.9263" style="stroke:#181818;stroke-width:1;"/><line style="stroke:#181818;stroke-width:1;" x1="501.6006" x2="501.6006" y1="917.895" y2="937.895"/><polygon fill="#181818" points="497.6006,927.895,505.6006,927.895,501.6006,937.895" style="stroke:#181818;stroke-width:1;"/><line style="stroke:#181818;stroke-width:1;" x1="420.0046" x2="354.9312" y1="1003.8638" y2="1003.8638"/><line style="stroke:#181818;stroke-width:1;" x1="354.9312" x2="354.9312" y1="1003.8638" y2="1025.8638"/><polygon fill="#181818" points="350.9312,1015.8638,358.9312,1015.8638,354.9312,1025.8638" style="stroke:#181818;stroke-width:1;"/><line style="stroke:#181818;stroke-width:1;" x1="583.1965" x2="648.27" y1="1003.8638" y2="1003.8638"/><line style="stroke:#181818;stroke-width:1;" x1="648.27" x2="648.27" y1="1003.8638" y2="1025.8638"/><polygon fill="#181818" points="644.27,1015.8638,652.27,1015.8638,648.27,1025.8638" style="stroke:#181818;stroke-width:1;"/><line style="stroke:#181818;stroke-width:1;" x1="354.9312" x2="354.9312" y1="1059.8325" y2="1077.8325"/><line style="stroke:#181818;stroke-width:1;" x1="354.9312" x2="489.6006" y1="1077.8325" y2="1077.8325"/><polygon fill="#181818" points="479.6006,1073.8325,489.6006,1077.8325,479.6006,1081.8325" style="stroke:#181818;stroke-width:1;"/><line style="stroke:#181818;stroke-width:1;" x1="648.27" x2="648.27" y1="1059.8325" y2="1077.8325"/><line style="stroke:#181818;stroke-width:1;" x1="648.27" x2="513.6006" y1="1077.8325" y2="1077.8325"/><polygon fill="#181818" points="523.6006,1073.8325,513.6006,1077.8325,523.6006,1081.8325" style="stroke:#181818;stroke-width:1;"/><line style="stroke:#181818;stroke-width:1;" x1="501.6006" x2="501.6006" y1="971.8638" y2="991.8638"/><polygon fill="#181818" points="497.6006,981.8638,505.6006,981.8638,501.6006,991.8638" style="stroke:#181818;stroke-width:1;"/><line style="stroke:#181818;stroke-width:1;" x1="501.6006" x2="501.6006" y1="1089.8325" y2="1109.8325"/><polygon fill="#181818" points="497.6006,1099.8325,505.6006,1099.8325,501.6006,1109.8325" style="stroke:#181818;stroke-width:1;"/><line style="stroke:#181818;stroke-width:1;" x1="501.6006" x2="501.6006" y1="1143.8013" y2="1163.8013"/><polygon fill="#181818" points="497.6006,1153.8013,505.6006,1153.8013,501.6006,1163.8013" style="stroke:#181818;stroke-width:1;"/><line style="stroke:#181818;stroke-width:1;" x1="432.5186" x2="432.5186" y1="1373.7075" y2="1393.7075"/><polygon fill="#181818" points="428.5186,1383.7075,436.5186,1383.7075,432.5186,1393.7075" style="stroke:#181818;stroke-width:1;"/><line style="stroke:#181818;stroke-width:1;" x1="432.5186" x2="432.5186" y1="1427.6763" y2="1447.6763"/><polygon fill="#181818" points="428.5186,1437.6763,436.5186,1437.6763,432.5186,1447.6763" style="stroke:#181818;stroke-width:1;"/><line style="stroke:#181818;stroke-width:1;" x1="168.2244" x2="137.1611" y1="1317.7388" y2="1317.7388"/><line style="stroke:#181818;stroke-width:1;" x1="137.1611" x2="137.1611" y1="1317.7388" y2="1339.7388"/><polygon fill="#181818" points="133.1611,1329.7388,141.1611,1329.7388,137.1611,1339.7388" style="stroke:#181818;stroke-width:1;"/><line style="stroke:#181818;stroke-width:1;" x1="401.4553" x2="432.5186" y1="1317.7388" y2="1317.7388"/><line style="stroke:#181818;stroke-width:1;" x1="432.5186" x2="432.5186" y1="1317.7388" y2="1339.7388"/><polygon fill="#181818" points="428.5186,1329.7388,436.5186,1329.7388,432.5186,1339.7388" style="stroke:#181818;stroke-width:1;"/><line style="stroke:#181818;stroke-width:1;" x1="137.1611" x2="137.1611" y1="1373.7075" y2="1499.645"/><line style="stroke:#181818;stroke-width:1;" x1="137.1611" x2="272.8398" y1="1499.645" y2="1499.645"/><polygon fill="#181818" points="262.8398,1495.645,272.8398,1499.645,262.8398,1503.645" style="stroke:#181818;stroke-width:1;"/><line style="stroke:#181818;stroke-width:1;" x1="432.5186" x2="432.5186" y1="1481.645" y2="1499.645"/><line style="stroke:#181818;stroke-width:1;" x1="432.5186" x2="296.8398" y1="1499.645" y2="1499.645"/><polygon fill="#181818" points="306.8398,1495.645,296.8398,1499.645,306.8398,1503.645" style="stroke:#181818;stroke-width:1;"/><line style="stroke:#181818;stroke-width:1;" x1="284.8398" x2="284.8398" y1="1285.7388" y2="1305.7388"/><polygon fill="#181818" points="280.8398,1295.7388,288.8398,1295.7388,284.8398,1305.7388" style="stroke:#181818;stroke-width:1;"/><line style="stroke:#181818;stroke-width:1;" x1="284.8398" x2="284.8398" y1="1511.645" y2="1531.645"/><polygon fill="#181818" points="280.8398,1521.645,288.8398,1521.645,284.8398,1531.645" style="stroke:#181818;stroke-width:1;"/><line style="stroke:#181818;stroke-width:1;" x1="284.8398" x2="284.8398" y1="1565.6138" y2="1585.6138"/><polygon fill="#181818" points="280.8398,1575.6138,288.8398,1575.6138,284.8398,1585.6138" style="stroke:#181818;stroke-width:1;"/><line style="stroke:#181818;stroke-width:1;" x1="368.845" x2="284.8398" y1="1229.77" y2="1229.77"/><line style="stroke:#181818;stroke-width:1;" x1="284.8398" x2="284.8398" y1="1229.77" y2="1251.77"/><polygon fill="#181818" points="280.8398,1241.77,288.8398,1241.77,284.8398,1251.77" style="stroke:#181818;stroke-width:1;"/><line style="stroke:#181818;stroke-width:1;" x1="634.3562" x2="718.3613" y1="1229.77" y2="1229.77"/><line style="stroke:#181818;stroke-width:1;" x1="718.3613" x2="718.3613" y1="1229.77" y2="1251.77"/><polygon fill="#181818" points="714.3613,1241.77,722.3613,1241.77,718.3613,1251.77" style="stroke:#181818;stroke-width:1;"/><line style="stroke:#181818;stroke-width:1;" x1="284.8398" x2="284.8398" y1="1619.5825" y2="1637.5825"/><line style="stroke:#181818;stroke-width:1;" x1="284.8398" x2="489.6006" y1="1637.5825" y2="1637.5825"/><polygon fill="#181818" points="479.6006,1633.5825,489.6006,1637.5825,479.6006,1641.5825" style="stroke:#181818;stroke-width:1;"/><line style="stroke:#181818;stroke-width:1;" x1="718.3613" x2="718.3613" y1="1285.7388" y2="1637.5825"/><line style="stroke:#181818;stroke-width:1;" x1="718.3613" x2="513.6006" y1="1637.5825" y2="1637.5825"/><polygon fill="#181818" points="523.6006,1633.5825,513.6006,1637.5825,523.6006,1641.5825" style="stroke:#181818;stroke-width:1;"/><line style="stroke:#181818;stroke-width:1;" x1="501.6006" x2="501.6006" y1="1197.77" y2="1217.77"/><polygon fill="#181818" points="497.6006,1207.77,505.6006,1207.77,501.6006,1217.77" style="stroke:#181818;stroke-width:1;"/><line style="stroke:#181818;stroke-width:1;" x1="501.6006" x2="501.6006" y1="1649.5825" y2="1669.5825"/><polygon fill="#181818" points="497.6006,1659.5825,505.6006,1659.5825,501.6006,1669.5825" style="stroke:#181818;stroke-width:1;"/><?plantuml-src bLLTQnj757tNhxW46jPGuP3q8SWqnP9Zn_LNYPI6qfGmtXrf1grcvDbPLshfGp353wKqfkIXb80LOuhRcheuK2fH-h36_sF_IS_CohBi9eK-Q14xS-yzvznpxoPjgRhCi0ubjXzpF8qCRTg9IydaX8LMRalRfozBH5KMjbj6foggwLWRMfKjOMjzfjoPDX4tnVi5phlrThyQfnmd2v9rj8gk1pyMqauVloN-gr8fiSpOKcMzTNwIZrvAYh8_LOj2aO--LMIpOoL8dUtWrOsQo8T7YixsT3PGD-PAbGSo7-tW4kv-Got9D4LuiwleKJVMBA9y-4g9kPBXNSuimBobI5D2dkridpRpuM67RZJouO6aEFlP5K7K0-JqHVOGqtOrEsGD0n3K1Rme7mvmuZ94AVx4hiW1_WGVirX6pFAP2n3qkN350e-CaFAWIp7IVp13Cg5WHMIlLMkcLBv7jUnqhbHgQjDs41ge-anHBnyT0zXV5N9Q3Ff0bUR3OqlMIK8BQHm_P5zeyqG5gneN92YDlYCb4FvrYaXadxNPQGX0BZMn5fFglmfyih6wiNstNESjvFn8PA-y_eum-3eDRJvwuLfmVdBkH8WOKdCLaKTUgjH4slTDScAzaDJEZaFXh-UZ7qElMUWueAyYEsNKu2g1Hu8xTs_ry4Eoobhs6cU_Gg_xpQOC9LTsdTjozJtVazz34aNJwscVOYU7ec1PDRdXAdJAet_3utIAMiERgf2ibmr2IX1rQ2cewwRjiDxCkqzKmtYWlUAaeRlbEtIJpfuZHi1gsO0w-UWezBH-89EFVf9aD3eccnIWTzwv1RBKDM7NsRW5XABmppswVUiTTDqAhdp0ZEl2YYygdBwMQh0XeZQpWQPsOVqGQBguRgIL8OlfCJDAmZ2GF4xufN_G0Dc4-bTP0ElmZn3MFJz1frPPdniAKzXQKj24ELF3aq_BjpzpcjMbA-qGU8hV5nxQjRHaM5IkpQ_XpjdpA_vlvyE_BMsXrW457zOtrgaU2jvnXl2gDB9zzD-Hyqcp0ppyO2kGE-vEYq5bUfHmCxkWGwlDx7pKaSeBj7f-aXBUfXsumCtlvK9mNjAqfbLBBrIl2e9qIobFh4zHTHEnbJBQ77imzZch55I1JDEsc_OjvrhCWv7O0Z3v-KbXwx6gZk8qNSyMWSzeqMXbSV7wTbgPkdrp8Y8OQDXYUYczMIm645VKWfFtgUhDUtPK23GH42uTEXUurJMDmQqxM7QyJQUzFCrbVjblFGVY8h_hrkJk_FA5u7YBEYHOdn8cB_id_7ovoN8OhY_Gbf051rN1pdiQQcDuQEbzQfYKkyf5v-fC-iqOYd6I2PZnrexzVgiMeuMvljW65bpSLlg56kvnjkSbcBkMPApY4i248Xkw9TH7gwa3lr1mlzVbnjAwjZoPcVi_91OPq7iMtYp_icoH-UaYvz4cFfdNJ8lhuxPWfWvJF4U_KLmi4KVxvSNd9tB-tFKZFTgXXnoV8wcG9-BnzLs0d4iJjDGLpj5mLZReOD5a-ye9TcWdxawixlu3?></g></svg>